# xmcd
#
# Track frame offsets:
#	150
#	10448
#	23663
#	35761
#	47784
#	59004
#	68027
#	77635
#	88375
#	98410
#
# Disc length: 1424 seconds
#
# Revision: 1
# Processed by: cddbd v1.5.2PL0 Copyright (c) Steve Scherf et al.
# Submitted via: audiograbber 1.83.01
#
DISCID=7f058e0a
DTITLE=Porter Wagoner and Dolly Parton - The Best Of
DYEAR=1971
DGENRE=Country
TTITLE0=Just Someone I Used To Know
TTITLE1=Daddy Was An Old Time Preacher Man
TTITLE2=Tomorrow Is Forever
TTITLE3=Jeannie's Afraid Of The Dark 
TTITLE4=The Last Thing On My Mind
TTITLE5=The Pain Of Loving You
TTITLE6=Better Move It On Home
TTITLE7=Holding On To Nothin' 
TTITLE8=Run That By Me One More Time
TTITLE9=We'll Get Ahead Someday
EXTD=This is taken from one of my LP's that I have made into a CD
EXTT0=
EXTT1=
EXTT2=
EXTT3=
EXTT4=
EXTT5=
EXTT6=
EXTT7=
EXTT8=
EXTT9=
PLAYORDER=
